<svg xmlns="http://www.w3.org/2000/svg" xmlns:xlink="http://www.w3.org/1999/xlink" width="1366" zoomAndPan="magnify" viewBox="0 0 1024.5 1033.5" height="1378" preserveAspectRatio="xMidYMid meet" version="1.2"><defs><clipPath id="b7a59b13d3"><path d="M 7.378906 11.878906 L 1016.621094 11.878906 L 1016.621094 1021.121094 L 7.378906 1021.121094 Z M 7.378906 11.878906 "/></clipPath><clipPath id="86ffe991a4"><path d="M 512 11.878906 C 233.304688 11.878906 7.378906 237.804688 7.378906 516.5 C 7.378906 795.195312 233.304688 1021.121094 512 1021.121094 C 790.695312 1021.121094 1016.621094 795.195312 1016.621094 516.5 C 1016.621094 237.804688 790.695312 11.878906 512 11.878906 Z M 512 11.878906 "/></clipPath><clipPath id="9a73a31aeb"><path d="M 126.179688 258.269531 L 897.753906 258.269531 L 897.753906 774.699219 L 126.179688 774.699219 Z M 126.179688 258.269531 "/></clipPath></defs><g id="ebaee3eb68"><g clip-rule="nonzero" clip-path="url(#b7a59b13d3)"><g clip-rule="nonzero" clip-path="url(#86ffe991a4)"><path style=" stroke:none;fill-rule:nonzero;fill:#433b2e;fill-opacity:1;" d="M 7.378906 11.878906 L 1016.621094 11.878906 L 1016.621094 1021.121094 L 7.378906 1021.121094 Z M 7.378906 11.878906 "/></g></g><g clip-rule="nonzero" clip-path="url(#9a73a31aeb)"><path style=" stroke:none;fill-rule:evenodd;fill:#ffdb6e;fill-opacity:1;" d="M 186.972656 517.0625 C 197.398438 522.433594 206.53125 529.898438 212.828125 540.3125 C 223.824219 558.488281 225.449219 587.242188 225.449219 607.953125 L 225.449219 671.878906 C 225.449219 684.398438 226.300781 710.925781 235.328125 720.835938 C 243.78125 730.101562 262.96875 731.375 274.546875 731.375 C 276.304688 731.375 278.128906 731.246094 279.894531 731.121094 C 282.066406 730.976562 284.292969 730.835938 286.484375 730.835938 L 294.355469 730.835938 L 294.355469 774.699219 L 274 774.699219 C 249.660156 774.699219 215.746094 771.796875 197.792969 753.113281 C 179.296875 733.859375 177.148438 694.347656 177.148438 669.261719 L 177.148438 604.519531 C 177.148438 588.558594 175.371094 564.800781 164.074219 552.28125 C 156.378906 543.753906 144.101562 540.355469 133.085938 538.996094 L 126.179688 538.148438 L 126.179688 495.378906 L 133.085938 494.527344 C 144.074219 493.171875 156.398438 489.785156 164.066406 481.25 C 175.371094 468.675781 177.148438 444.828125 177.148438 428.820312 L 177.148438 364.441406 C 177.148438 339.136719 179.355469 299.859375 197.847656 280.351562 C 215.910156 261.304688 249.332031 258.277344 274 258.277344 L 294.355469 258.277344 L 294.355469 302.140625 L 276.710938 302.140625 C 264.808594 302.140625 244.335938 303.367188 235.554688 312.828125 C 226.332031 322.769531 225.449219 349.1875 225.449219 361.816406 L 225.449219 426.113281 C 225.449219 446.804688 223.816406 475.503906 212.828125 493.660156 C 206.53125 504.078125 197.390625 511.597656 186.972656 517.0625 Z M 836.957031 517.0625 C 826.539062 511.597656 817.410156 504.078125 811.105469 493.660156 C 800.117188 475.503906 798.480469 446.804688 798.480469 426.113281 L 798.480469 361.816406 C 798.480469 349.1875 797.597656 322.769531 788.375 312.828125 C 779.59375 303.367188 759.121094 302.140625 747.21875 302.140625 L 729.574219 302.140625 L 729.574219 258.277344 L 749.933594 258.277344 C 774.597656 258.277344 808.023438 261.304688 826.082031 280.351562 C 844.578125 299.859375 846.777344 339.136719 846.777344 364.441406 L 846.777344 428.820312 C 846.777344 444.828125 848.558594 468.675781 859.867188 481.25 C 867.535156 489.785156 879.855469 493.171875 890.84375 494.527344 L 897.753906 495.378906 L 897.753906 538.148438 L 890.84375 538.996094 C 879.832031 540.355469 867.550781 543.753906 859.847656 552.28125 C 848.550781 564.800781 846.777344 588.558594 846.777344 604.519531 L 846.777344 669.261719 C 846.777344 694.347656 844.632812 733.859375 826.140625 753.113281 C 808.175781 771.796875 774.273438 774.699219 749.933594 774.699219 L 729.574219 774.699219 L 729.574219 730.835938 L 737.449219 730.835938 C 739.640625 730.835938 741.855469 730.976562 744.039062 731.121094 C 745.796875 731.246094 747.617188 731.375 749.386719 731.375 C 760.960938 731.375 780.152344 730.101562 788.605469 720.835938 C 797.628906 710.925781 798.480469 684.398438 798.480469 671.878906 L 798.480469 607.953125 C 798.480469 587.242188 800.109375 558.488281 811.105469 540.3125 C 817.398438 529.898438 826.53125 522.433594 836.957031 517.0625 "/></g><path style=" stroke:none;fill-rule:evenodd;fill:#ffdb6e;fill-opacity:1;" d="M 599.421875 617.148438 L 599.421875 577.160156 L 756.03125 577.160156 L 756.03125 617.148438 L 599.421875 617.148438 "/><path style=" stroke:none;fill-rule:evenodd;fill:#ffdb6e;fill-opacity:1;" d="M 277.980469 516.226562 L 362.371094 571.535156 L 362.371094 624.117188 L 231.964844 535.882812 L 231.964844 496.113281 L 362.371094 408.96875 L 362.371094 461.398438 L 277.980469 516.226562 "/><path style=" stroke:none;fill-rule:evenodd;fill:#ffdb6e;fill-opacity:1;" d="M 588.378906 516.226562 L 504.09375 461.398438 L 504.09375 408.96875 L 634.503906 496.113281 L 634.503906 535.882812 L 504.09375 624.117188 L 504.09375 571.535156 L 588.378906 516.226562 "/><path style=" stroke:none;fill-rule:evenodd;fill:#ffdb6e;fill-opacity:1;" d="M 507.835938 355.210938 L 404.238281 689.957031 L 358.636719 677.765625 L 462.230469 343.019531 L 507.835938 355.210938 "/></g></svg>