<svg xmlns="http://www.w3.org/2000/svg" xmlns:xlink="http://www.w3.org/1999/xlink" width="1366" zoomAndPan="magnify" viewBox="0 0 1024.5 1033.5" height="1378" preserveAspectRatio="xMidYMid meet" version="1.2"><defs><clipPath id="190e52394f"><path d="M 7.378906 11.878906 L 1016.621094 11.878906 L 1016.621094 1021.121094 L 7.378906 1021.121094 Z M 7.378906 11.878906 "/></clipPath><clipPath id="7b3f6e5335"><path d="M 512 11.878906 C 233.304688 11.878906 7.378906 237.804688 7.378906 516.5 C 7.378906 795.195312 233.304688 1021.121094 512 1021.121094 C 790.695312 1021.121094 1016.621094 795.195312 1016.621094 516.5 C 1016.621094 237.804688 790.695312 11.878906 512 11.878906 Z M 512 11.878906 "/></clipPath></defs><g id="91104f580d"><g clip-rule="nonzero" clip-path="url(#190e52394f)"><g clip-rule="nonzero" clip-path="url(#7b3f6e5335)"><path style=" stroke:none;fill-rule:nonzero;fill:#433b2e;fill-opacity:1;" d="M 7.378906 11.878906 L 1016.621094 11.878906 L 1016.621094 1021.121094 L 7.378906 1021.121094 Z M 7.378906 11.878906 "/></g></g><path style=" stroke:none;fill-rule:nonzero;fill:#ffdb6e;fill-opacity:1;" d="M 844.792969 645.898438 L 830.070312 639.277344 C 832.875 633.003906 835.492188 626.65625 837.921875 620.226562 C 840.347656 613.800781 842.585938 607.304688 844.628906 600.746094 C 846.671875 594.183594 848.519531 587.570312 850.171875 580.898438 C 851.820312 574.230469 853.273438 567.515625 854.527344 560.761719 C 855.78125 554.003906 856.832031 547.21875 857.683594 540.398438 C 858.535156 533.582031 859.179688 526.746094 859.625 519.886719 C 860.070312 513.03125 860.3125 506.167969 860.351562 499.296875 C 860.390625 492.425781 860.226562 485.558594 859.855469 478.699219 C 859.488281 471.835938 858.917969 464.992188 858.140625 458.164062 C 857.367188 451.335938 856.390625 444.539062 855.214844 437.769531 C 854.035156 431 852.660156 424.273438 851.082031 417.585938 C 849.503906 410.894531 847.730469 404.261719 845.761719 397.679688 C 843.792969 391.097656 841.628906 384.578125 839.269531 378.121094 C 836.914062 371.667969 834.367188 365.289062 831.632812 358.984375 C 828.898438 352.683594 825.980469 346.464844 822.875 340.335938 C 819.773438 334.207031 816.492188 328.171875 813.03125 322.238281 L 826.960938 314.082031 C 830.585938 320.296875 834.023438 326.609375 837.269531 333.023438 C 840.519531 339.441406 843.574219 345.949219 846.4375 352.542969 C 849.300781 359.140625 851.964844 365.816406 854.429688 372.574219 C 856.898438 379.328125 859.164062 386.148438 861.226562 393.039062 C 863.285156 399.929688 865.144531 406.875 866.792969 413.871094 C 868.445312 420.871094 869.886719 427.914062 871.117188 435 C 872.351562 442.085938 873.371094 449.199219 874.183594 456.34375 C 874.996094 463.492188 875.59375 470.652344 875.976562 477.835938 C 876.363281 485.015625 876.539062 492.203125 876.496094 499.394531 C 876.457031 506.585938 876.203125 513.769531 875.738281 520.945312 C 875.269531 528.121094 874.59375 535.277344 873.703125 542.414062 C 872.8125 549.550781 871.710938 556.652344 870.398438 563.722656 C 869.085938 570.792969 867.566406 577.820312 865.835938 584.800781 C 864.109375 591.78125 862.175781 598.703125 860.035156 605.570312 C 857.894531 612.4375 855.554688 619.230469 853.011719 625.960938 C 850.46875 632.6875 847.730469 639.332031 844.792969 645.898438 Z M 844.792969 645.898438 "/><path style=" stroke:none;fill-rule:nonzero;fill:#ffdb6e;fill-opacity:1;" d="M 787.328125 284.304688 C 786.828125 283.660156 786.382812 283.085938 785.875 282.527344 C 782.890625 278.742188 779.828125 275.015625 776.6875 271.355469 C 773.546875 267.695312 770.328125 264.101562 767.039062 260.574219 C 763.75 257.046875 760.386719 253.589844 756.953125 250.203125 C 753.519531 246.816406 750.015625 243.503906 746.441406 240.261719 C 742.871094 237.019531 739.230469 233.855469 735.527344 230.765625 C 731.824219 227.675781 728.054688 224.664062 724.226562 221.734375 C 720.398438 218.800781 716.507812 215.949219 712.558594 213.179688 C 708.609375 210.410156 704.605469 207.722656 700.546875 205.117188 C 696.484375 202.515625 692.371094 199.996094 688.207031 197.566406 C 684.042969 195.132812 679.828125 192.789062 675.566406 190.53125 C 671.300781 188.277344 666.992188 186.109375 662.640625 184.03125 C 658.289062 181.953125 653.894531 179.96875 649.457031 178.074219 C 645.019531 176.179688 640.546875 174.378906 636.035156 172.671875 C 631.523438 170.964844 626.980469 169.351562 622.402344 167.832031 C 617.824219 166.316406 613.214844 164.890625 608.578125 163.566406 C 603.941406 162.238281 599.277344 161.011719 594.589844 159.878906 C 589.902344 158.746094 585.191406 157.710938 580.460938 156.777344 C 575.726562 155.839844 570.976562 155.003906 566.210938 154.265625 C 561.445312 153.527344 556.664062 152.890625 551.871094 152.351562 C 547.078125 151.8125 542.277344 151.371094 537.464844 151.035156 C 532.652344 150.695312 527.835938 150.457031 523.015625 150.316406 C 518.195312 150.179688 513.371094 150.140625 508.550781 150.203125 C 503.726562 150.265625 498.90625 150.429688 494.089844 150.695312 C 489.273438 150.957031 484.464844 151.320312 479.664062 151.785156 C 474.863281 152.25 470.074219 152.8125 465.296875 153.476562 C 460.519531 154.140625 455.757812 154.902344 451.011719 155.761719 C 446.265625 156.625 441.539062 157.585938 436.835938 158.644531 C 432.128906 159.703125 427.445312 160.859375 422.789062 162.113281 C 418.132812 163.367188 413.5 164.714844 408.902344 166.164062 C 404.300781 167.609375 399.730469 169.152344 395.191406 170.789062 C 390.65625 172.425781 386.15625 174.15625 381.691406 175.980469 C 377.222656 177.804688 372.800781 179.722656 368.414062 181.730469 L 361.664062 167.054688 C 366.25 164.953125 370.875 162.949219 375.542969 161.042969 C 380.210938 159.136719 384.917969 157.324219 389.660156 155.613281 C 394.402344 153.902344 399.179688 152.289062 403.992188 150.777344 C 408.800781 149.265625 413.640625 147.851562 418.511719 146.539062 C 423.378906 145.226562 428.273438 144.019531 433.191406 142.910156 C 438.113281 141.804688 443.050781 140.796875 448.015625 139.894531 C 452.976562 138.992188 457.953125 138.195312 462.949219 137.5 C 467.941406 136.804688 472.949219 136.214844 477.96875 135.726562 C 482.988281 135.242188 488.015625 134.859375 493.050781 134.582031 C 498.082031 134.304688 503.121094 134.132812 508.164062 134.0625 C 513.207031 133.996094 518.25 134.03125 523.289062 134.175781 C 528.328125 134.316406 533.363281 134.5625 538.394531 134.914062 C 543.425781 135.265625 548.445312 135.722656 553.457031 136.285156 C 558.46875 136.84375 563.464844 137.507812 568.449219 138.277344 C 573.433594 139.046875 578.398438 139.917969 583.347656 140.894531 C 588.292969 141.867188 593.21875 142.945312 598.121094 144.125 C 603.023438 145.304688 607.902344 146.585938 612.75 147.96875 C 617.597656 149.355469 622.417969 150.835938 627.203125 152.421875 C 631.992188 154.003906 636.746094 155.6875 641.460938 157.46875 C 646.179688 159.25 650.859375 161.128906 655.496094 163.105469 C 660.136719 165.082031 664.734375 167.152344 669.285156 169.320312 C 673.839844 171.488281 678.34375 173.75 682.804688 176.101562 C 687.261719 178.457031 691.671875 180.90625 696.027344 183.441406 C 700.386719 185.980469 704.6875 188.609375 708.9375 191.328125 C 713.183594 194.042969 717.371094 196.847656 721.503906 199.742188 C 725.636719 202.632812 729.703125 205.609375 733.710938 208.667969 C 737.71875 211.730469 741.660156 214.875 745.535156 218.097656 C 749.414062 221.324219 753.21875 224.628906 756.960938 228.011719 C 760.699219 231.394531 764.363281 234.855469 767.960938 238.390625 C 771.554688 241.929688 775.074219 245.539062 778.519531 249.21875 C 781.964844 252.902344 785.332031 256.65625 788.617188 260.480469 C 791.90625 264.300781 795.113281 268.191406 798.242188 272.148438 C 798.667969 272.609375 799.324219 273.449219 799.984375 274.277344 Z M 787.328125 284.304688 "/><path style=" stroke:none;fill-rule:nonzero;fill:#ffdb6e;fill-opacity:1;" d="M 183.023438 648.867188 C 181.101562 644.671875 179.261719 640.441406 177.503906 636.175781 C 175.742188 631.910156 174.0625 627.613281 172.464844 623.285156 C 170.871094 618.957031 169.355469 614.597656 167.925781 610.210938 C 166.492188 605.824219 165.148438 601.414062 163.882812 596.972656 C 162.621094 592.535156 161.441406 588.074219 160.351562 583.59375 C 159.257812 579.109375 158.25 574.609375 157.328125 570.085938 C 156.40625 565.566406 155.570312 561.027344 154.824219 556.476562 C 154.074219 551.921875 153.410156 547.355469 152.835938 542.777344 C 152.261719 538.199219 151.773438 533.613281 151.375 529.015625 C 150.972656 524.417969 150.660156 519.816406 150.4375 515.207031 C 150.210938 510.597656 150.074219 505.988281 150.023438 501.371094 C 149.972656 496.757812 150.011719 492.144531 150.140625 487.53125 C 150.265625 482.921875 150.480469 478.3125 150.78125 473.707031 C 151.082031 469.101562 151.472656 464.507812 151.949219 459.917969 C 152.425781 455.328125 152.988281 450.75 153.640625 446.179688 C 154.289062 441.613281 155.027344 437.058594 155.851562 432.519531 C 156.675781 427.976562 157.585938 423.457031 158.585938 418.949219 C 159.582031 414.445312 160.664062 409.960938 161.832031 405.496094 C 162.996094 401.03125 164.25 396.59375 165.585938 392.175781 C 166.921875 387.757812 168.34375 383.371094 169.847656 379.007812 C 171.347656 374.644531 172.9375 370.3125 174.605469 366.011719 C 176.273438 361.707031 178.023438 357.441406 179.851562 353.203125 C 181.683594 348.96875 183.59375 344.769531 185.585938 340.609375 C 187.578125 336.445312 189.648438 332.320312 191.792969 328.238281 C 193.941406 324.152344 196.167969 320.113281 198.46875 316.113281 C 200.769531 312.113281 203.148438 308.160156 205.601562 304.253906 C 208.054688 300.34375 210.578125 296.484375 213.179688 292.671875 C 215.777344 288.859375 218.449219 285.097656 221.191406 281.386719 C 223.933594 277.675781 226.746094 274.019531 229.628906 270.414062 C 232.511719 266.8125 235.460938 263.261719 238.476562 259.773438 C 241.492188 256.28125 244.574219 252.847656 247.722656 249.472656 C 250.871094 246.101562 254.082031 242.789062 257.355469 239.535156 L 268.65625 251 C 265.527344 254.105469 262.460938 257.269531 259.453125 260.496094 C 256.445312 263.71875 253.5 267 250.617188 270.335938 C 247.738281 273.671875 244.917969 277.0625 242.164062 280.503906 C 239.414062 283.949219 236.726562 287.441406 234.105469 290.988281 C 231.484375 294.535156 228.933594 298.128906 226.449219 301.769531 C 223.964844 305.414062 221.550781 309.101562 219.210938 312.835938 C 216.867188 316.574219 214.59375 320.351562 212.394531 324.171875 C 210.195312 327.992188 208.070312 331.855469 206.019531 335.757812 C 203.964844 339.660156 201.988281 343.597656 200.085938 347.574219 C 198.183594 351.554688 196.359375 355.566406 194.609375 359.613281 C 192.859375 363.660156 191.1875 367.738281 189.59375 371.847656 C 188 375.957031 186.484375 380.097656 185.046875 384.265625 C 183.609375 388.433594 182.253906 392.628906 180.976562 396.847656 C 179.699219 401.066406 178.503906 405.3125 177.386719 409.578125 C 176.273438 413.839844 175.238281 418.125 174.285156 422.429688 C 173.332031 426.738281 172.464844 431.058594 171.675781 435.394531 C 170.886719 439.734375 170.183594 444.085938 169.5625 448.449219 C 168.9375 452.8125 168.398438 457.1875 167.945312 461.574219 C 167.488281 465.960938 167.117188 470.351562 166.828125 474.75 C 166.539062 479.152344 166.335938 483.554688 166.214844 487.960938 C 166.09375 492.367188 166.054688 496.777344 166.101562 501.183594 C 166.148438 505.59375 166.28125 510 166.496094 514.402344 C 166.710938 518.808594 167.007812 523.207031 167.390625 527.597656 C 167.773438 531.988281 168.238281 536.371094 168.789062 540.746094 C 169.335938 545.121094 169.96875 549.484375 170.683594 553.835938 C 171.398438 558.1875 172.195312 562.519531 173.078125 566.839844 C 173.957031 571.160156 174.917969 575.464844 175.960938 579.746094 C 177.007812 584.03125 178.132812 588.292969 179.335938 592.53125 C 180.542969 596.773438 181.832031 600.988281 183.195312 605.179688 C 184.5625 609.371094 186.007812 613.539062 187.535156 617.675781 C 189.058594 621.808594 190.664062 625.917969 192.34375 629.992188 C 194.027344 634.066406 195.785156 638.109375 197.621094 642.117188 Z M 183.023438 648.867188 "/><path style=" stroke:none;fill-rule:nonzero;fill:#ffdb6e;fill-opacity:1;" d="M 819.996094 860.539062 L 206.5 860.539062 C 205.707031 860.539062 204.914062 860.5 204.125 860.421875 C 203.335938 860.34375 202.550781 860.230469 201.773438 860.074219 C 200.996094 859.917969 200.226562 859.726562 199.46875 859.496094 C 198.710938 859.265625 197.964844 859 197.230469 858.695312 C 196.5 858.394531 195.78125 858.054688 195.082031 857.679688 C 194.382812 857.304688 193.703125 856.898438 193.046875 856.457031 C 192.386719 856.019531 191.75 855.546875 191.136719 855.042969 C 190.523438 854.539062 189.9375 854.007812 189.375 853.445312 C 188.8125 852.886719 188.28125 852.300781 187.777344 851.6875 C 187.277344 851.074219 186.804688 850.4375 186.363281 849.777344 C 185.921875 849.117188 185.515625 848.4375 185.140625 847.738281 C 184.769531 847.039062 184.429688 846.324219 184.125 845.589844 C 183.820312 844.859375 183.554688 844.113281 183.324219 843.351562 C 183.09375 842.59375 182.902344 841.824219 182.746094 841.046875 C 182.59375 840.269531 182.476562 839.484375 182.398438 838.695312 C 182.320312 837.90625 182.28125 837.117188 182.28125 836.324219 L 182.28125 448.851562 C 182.28125 448.058594 182.320312 447.265625 182.398438 446.476562 C 182.476562 445.6875 182.59375 444.90625 182.746094 444.125 C 182.902344 443.347656 183.09375 442.582031 183.324219 441.820312 C 183.554688 441.0625 183.820312 440.316406 184.125 439.582031 C 184.429688 438.851562 184.769531 438.132812 185.140625 437.433594 C 185.515625 436.734375 185.921875 436.054688 186.363281 435.398438 C 186.804688 434.738281 187.277344 434.101562 187.777344 433.488281 C 188.28125 432.875 188.8125 432.289062 189.375 431.726562 C 189.9375 431.167969 190.523438 430.632812 191.136719 430.132812 C 191.75 429.628906 192.386719 429.15625 193.046875 428.714844 C 193.703125 428.273438 194.382812 427.867188 195.082031 427.492188 C 195.78125 427.121094 196.5 426.78125 197.230469 426.476562 C 197.964844 426.175781 198.710938 425.90625 199.46875 425.675781 C 200.226562 425.445312 200.996094 425.253906 201.773438 425.097656 C 202.550781 424.945312 203.335938 424.828125 204.125 424.75 C 204.914062 424.671875 205.707031 424.632812 206.5 424.632812 L 634.332031 424.632812 L 634.332031 440.777344 L 206.5 440.777344 C 205.96875 440.777344 205.445312 440.832031 204.925781 440.933594 C 204.40625 441.039062 203.898438 441.191406 203.410156 441.394531 C 202.921875 441.597656 202.457031 441.84375 202.015625 442.140625 C 201.574219 442.433594 201.167969 442.769531 200.792969 443.144531 C 200.417969 443.519531 200.082031 443.925781 199.789062 444.367188 C 199.492188 444.808594 199.246094 445.273438 199.042969 445.761719 C 198.839844 446.25 198.683594 446.757812 198.582031 447.277344 C 198.480469 447.796875 198.425781 448.320312 198.425781 448.851562 L 198.425781 836.324219 C 198.425781 836.851562 198.480469 837.378906 198.582031 837.898438 C 198.683594 838.417969 198.839844 838.921875 199.042969 839.410156 C 199.246094 839.902344 199.492188 840.367188 199.789062 840.808594 C 200.082031 841.25 200.417969 841.65625 200.792969 842.03125 C 201.167969 842.40625 201.574219 842.738281 202.015625 843.035156 C 202.457031 843.328125 202.921875 843.578125 203.410156 843.78125 C 203.898438 843.984375 204.40625 844.136719 204.925781 844.238281 C 205.445312 844.34375 205.96875 844.394531 206.5 844.394531 L 819.996094 844.394531 C 820.527344 844.394531 821.050781 844.34375 821.570312 844.238281 C 822.089844 844.136719 822.59375 843.984375 823.085938 843.78125 C 823.574219 843.578125 824.039062 843.328125 824.480469 843.035156 C 824.921875 842.738281 825.328125 842.40625 825.703125 842.03125 C 826.078125 841.65625 826.414062 841.25 826.707031 840.808594 C 827.003906 840.367188 827.25 839.902344 827.453125 839.410156 C 827.65625 838.921875 827.808594 838.417969 827.914062 837.898438 C 828.015625 837.378906 828.070312 836.851562 828.070312 836.324219 L 828.070312 448.851562 C 828.070312 448.320312 828.015625 447.796875 827.914062 447.277344 C 827.808594 446.757812 827.65625 446.25 827.453125 445.761719 C 827.25 445.273438 827.003906 444.808594 826.707031 444.367188 C 826.414062 443.925781 826.078125 443.519531 825.703125 443.144531 C 825.328125 442.769531 824.921875 442.433594 824.480469 442.140625 C 824.039062 441.84375 823.574219 441.597656 823.085938 441.394531 C 822.59375 441.191406 822.089844 441.039062 821.570312 440.933594 C 821.050781 440.832031 820.527344 440.777344 819.996094 440.777344 L 706.984375 440.777344 L 706.984375 424.632812 L 819.996094 424.632812 C 820.789062 424.632812 821.582031 424.671875 822.371094 424.75 C 823.160156 424.828125 823.941406 424.945312 824.71875 425.097656 C 825.5 425.253906 826.265625 425.445312 827.027344 425.675781 C 827.785156 425.90625 828.53125 426.175781 829.261719 426.476562 C 829.996094 426.78125 830.710938 427.121094 831.410156 427.492188 C 832.113281 427.867188 832.792969 428.273438 833.449219 428.714844 C 834.109375 429.15625 834.746094 429.628906 835.359375 430.132812 C 835.972656 430.632812 836.558594 431.167969 837.121094 431.726562 C 837.679688 432.289062 838.214844 432.875 838.714844 433.488281 C 839.21875 434.101562 839.691406 434.738281 840.132812 435.398438 C 840.574219 436.054688 840.980469 436.734375 841.355469 437.433594 C 841.726562 438.132812 842.066406 438.851562 842.371094 439.582031 C 842.671875 440.316406 842.941406 441.0625 843.171875 441.820312 C 843.402344 442.582031 843.59375 443.347656 843.746094 444.125 C 843.902344 444.90625 844.019531 445.6875 844.097656 446.476562 C 844.175781 447.265625 844.214844 448.058594 844.214844 448.851562 L 844.214844 836.324219 C 844.214844 837.117188 844.175781 837.90625 844.097656 838.695312 C 844.019531 839.484375 843.902344 840.269531 843.746094 841.046875 C 843.59375 841.824219 843.402344 842.59375 843.171875 843.351562 C 842.941406 844.113281 842.671875 844.859375 842.371094 845.589844 C 842.066406 846.324219 841.726562 847.039062 841.355469 847.738281 C 840.980469 848.4375 840.574219 849.117188 840.132812 849.777344 C 839.691406 850.4375 839.21875 851.074219 838.714844 851.6875 C 838.214844 852.300781 837.679688 852.886719 837.121094 853.445312 C 836.558594 854.007812 835.972656 854.539062 835.359375 855.042969 C 834.746094 855.546875 834.109375 856.019531 833.449219 856.457031 C 832.792969 856.898438 832.113281 857.304688 831.410156 857.679688 C 830.710938 858.054688 829.996094 858.394531 829.261719 858.695312 C 828.53125 859 827.785156 859.265625 827.027344 859.496094 C 826.265625 859.726562 825.5 859.917969 824.71875 860.074219 C 823.941406 860.230469 823.160156 860.34375 822.371094 860.421875 C 821.582031 860.5 820.789062 860.539062 819.996094 860.539062 Z M 819.996094 860.539062 "/><path style=" stroke:none;fill-rule:nonzero;fill:#ffdb6e;fill-opacity:1;" d="M 803.851562 828.25 L 271.078125 828.25 C 270.546875 828.25 270.023438 828.199219 269.503906 828.09375 C 268.984375 827.992188 268.476562 827.839844 267.988281 827.636719 C 267.5 827.433594 267.035156 827.183594 266.59375 826.890625 C 266.152344 826.59375 265.746094 826.261719 265.371094 825.886719 C 264.996094 825.511719 264.660156 825.101562 264.367188 824.664062 C 264.070312 824.222656 263.824219 823.757812 263.621094 823.265625 C 263.417969 822.777344 263.265625 822.273438 263.160156 821.753906 C 263.058594 821.234375 263.003906 820.707031 263.003906 820.179688 L 263.003906 464.996094 C 263.003906 464.464844 263.058594 463.941406 263.160156 463.421875 C 263.265625 462.902344 263.417969 462.394531 263.621094 461.90625 C 263.824219 461.417969 264.070312 460.953125 264.367188 460.511719 C 264.660156 460.070312 264.996094 459.664062 265.371094 459.289062 C 265.746094 458.914062 266.152344 458.578125 266.59375 458.285156 C 267.035156 457.988281 267.5 457.742188 267.988281 457.539062 C 268.476562 457.335938 268.984375 457.183594 269.503906 457.078125 C 270.023438 456.976562 270.546875 456.921875 271.078125 456.921875 L 602.042969 456.921875 L 602.042969 473.066406 L 279.148438 473.066406 L 279.148438 812.105469 L 795.78125 812.105469 L 795.78125 473.066406 L 674.695312 473.066406 L 674.695312 456.921875 L 803.851562 456.921875 C 804.382812 456.921875 804.90625 456.976562 805.425781 457.078125 C 805.945312 457.183594 806.449219 457.335938 806.941406 457.539062 C 807.429688 457.742188 807.894531 457.988281 808.335938 458.285156 C 808.777344 458.578125 809.183594 458.914062 809.558594 459.289062 C 809.933594 459.664062 810.269531 460.070312 810.5625 460.511719 C 810.859375 460.953125 811.105469 461.417969 811.308594 461.90625 C 811.511719 462.394531 811.664062 462.902344 811.769531 463.421875 C 811.871094 463.941406 811.925781 464.464844 811.925781 464.996094 L 811.925781 820.179688 C 811.925781 820.707031 811.871094 821.234375 811.769531 821.753906 C 811.664062 822.273438 811.511719 822.777344 811.308594 823.265625 C 811.105469 823.757812 810.859375 824.222656 810.5625 824.664062 C 810.269531 825.101562 809.933594 825.511719 809.558594 825.886719 C 809.183594 826.261719 808.777344 826.59375 808.335938 826.890625 C 807.894531 827.183594 807.429688 827.433594 806.941406 827.636719 C 806.449219 827.839844 805.945312 827.992188 805.425781 828.09375 C 804.90625 828.199219 804.382812 828.25 803.851562 828.25 Z M 803.851562 828.25 "/><path style=" stroke:none;fill-rule:nonzero;fill:#ffdb6e;fill-opacity:1;" d="M 230.714844 691.019531 C 229.128906 691.019531 227.546875 690.941406 225.96875 690.789062 C 224.390625 690.632812 222.824219 690.398438 221.265625 690.089844 C 219.710938 689.78125 218.175781 689.394531 216.65625 688.933594 C 215.136719 688.476562 213.648438 687.941406 212.179688 687.332031 C 210.714844 686.726562 209.285156 686.050781 207.882812 685.300781 C 206.484375 684.554688 205.125 683.738281 203.808594 682.859375 C 202.488281 681.976562 201.214844 681.03125 199.988281 680.027344 C 198.765625 679.019531 197.589844 677.957031 196.46875 676.835938 C 195.347656 675.714844 194.28125 674.539062 193.277344 673.3125 C 192.269531 672.085938 191.324219 670.8125 190.445312 669.496094 C 189.5625 668.175781 188.75 666.816406 188 665.417969 C 187.253906 664.019531 186.574219 662.585938 185.96875 661.121094 C 185.363281 659.65625 184.828125 658.164062 184.367188 656.644531 C 183.90625 655.128906 183.523438 653.589844 183.214844 652.035156 C 182.902344 650.480469 182.671875 648.914062 182.515625 647.335938 C 182.359375 645.753906 182.28125 644.171875 182.28125 642.585938 C 182.28125 641 182.359375 639.417969 182.515625 637.839844 C 182.671875 636.261719 182.902344 634.695312 183.214844 633.136719 C 183.523438 631.582031 183.90625 630.046875 184.367188 628.527344 C 184.828125 627.007812 185.363281 625.515625 185.96875 624.050781 C 186.574219 622.585938 187.253906 621.152344 188 619.753906 C 188.75 618.355469 189.5625 616.996094 190.445312 615.679688 C 191.324219 614.359375 192.269531 613.085938 193.277344 611.859375 C 194.28125 610.632812 195.347656 609.460938 196.46875 608.339844 C 197.589844 607.21875 198.765625 606.152344 199.988281 605.148438 C 201.214844 604.140625 202.488281 603.195312 203.808594 602.316406 C 205.125 601.433594 206.484375 600.621094 207.882812 599.871094 C 209.285156 599.125 210.714844 598.445312 212.179688 597.839844 C 213.648438 597.234375 215.136719 596.699219 216.65625 596.238281 C 218.175781 595.777344 219.710938 595.394531 221.265625 595.082031 C 222.824219 594.773438 224.390625 594.542969 225.96875 594.386719 C 227.546875 594.230469 229.128906 594.152344 230.714844 594.152344 C 232.300781 594.152344 233.886719 594.230469 235.464844 594.386719 C 237.042969 594.542969 238.609375 594.773438 240.164062 595.082031 C 241.722656 595.394531 243.257812 595.777344 244.777344 596.238281 C 246.292969 596.699219 247.785156 597.234375 249.25 597.839844 C 250.714844 598.445312 252.148438 599.125 253.546875 599.871094 C 254.945312 600.621094 256.304688 601.433594 257.625 602.316406 C 258.945312 603.195312 260.214844 604.140625 261.441406 605.148438 C 262.667969 606.152344 263.84375 607.21875 264.964844 608.339844 C 266.085938 609.460938 267.148438 610.632812 268.15625 611.859375 C 269.164062 613.085938 270.105469 614.359375 270.988281 615.679688 C 271.867188 616.996094 272.683594 618.355469 273.429688 619.753906 C 274.179688 621.152344 274.855469 622.585938 275.464844 624.050781 C 276.070312 625.515625 276.605469 627.007812 277.066406 628.527344 C 277.523438 630.046875 277.910156 631.582031 278.21875 633.136719 C 278.527344 634.695312 278.761719 636.261719 278.917969 637.839844 C 279.074219 639.417969 279.148438 641 279.148438 642.585938 C 279.148438 644.171875 279.070312 645.753906 278.914062 647.332031 C 278.753906 648.910156 278.523438 650.476562 278.210938 652.03125 C 277.902344 653.585938 277.515625 655.125 277.054688 656.640625 C 276.59375 658.160156 276.058594 659.648438 275.449219 661.113281 C 274.84375 662.578125 274.164062 664.011719 273.417969 665.410156 C 272.667969 666.808594 271.855469 668.164062 270.972656 669.484375 C 270.089844 670.800781 269.148438 672.074219 268.140625 673.300781 C 267.136719 674.527344 266.070312 675.699219 264.949219 676.820312 C 263.828125 677.941406 262.65625 679.003906 261.429688 680.011719 C 260.203125 681.019531 258.929688 681.960938 257.613281 682.84375 C 256.292969 683.726562 254.9375 684.539062 253.539062 685.289062 C 252.140625 686.035156 250.707031 686.714844 249.242188 687.320312 C 247.777344 687.929688 246.289062 688.464844 244.769531 688.925781 C 243.253906 689.386719 241.71875 689.773438 240.160156 690.082031 C 238.605469 690.394531 237.039062 690.625 235.460938 690.785156 C 233.882812 690.941406 232.300781 691.019531 230.714844 691.019531 Z M 230.714844 610.296875 C 229.660156 610.296875 228.605469 610.347656 227.550781 610.453125 C 226.5 610.558594 225.453125 610.710938 224.417969 610.917969 C 223.378906 611.125 222.355469 611.382812 221.34375 611.6875 C 220.332031 611.996094 219.335938 612.351562 218.359375 612.753906 C 217.382812 613.160156 216.429688 613.613281 215.496094 614.109375 C 214.5625 614.609375 213.65625 615.152344 212.777344 615.738281 C 211.898438 616.328125 211.050781 616.957031 210.230469 617.625 C 209.414062 618.296875 208.632812 619.007812 207.882812 619.753906 C 207.136719 620.503906 206.425781 621.285156 205.757812 622.101562 C 205.085938 622.921875 204.457031 623.769531 203.867188 624.648438 C 203.28125 625.527344 202.738281 626.433594 202.238281 627.367188 C 201.742188 628.296875 201.289062 629.253906 200.886719 630.230469 C 200.480469 631.207031 200.125 632.203125 199.816406 633.214844 C 199.511719 634.226562 199.253906 635.25 199.046875 636.289062 C 198.839844 637.324219 198.6875 638.371094 198.582031 639.421875 C 198.480469 640.472656 198.425781 641.53125 198.425781 642.585938 C 198.425781 643.644531 198.480469 644.699219 198.582031 645.75 C 198.6875 646.804688 198.839844 647.847656 199.046875 648.886719 C 199.253906 649.921875 199.511719 650.949219 199.816406 651.960938 C 200.125 652.972656 200.480469 653.964844 200.886719 654.945312 C 201.289062 655.921875 201.742188 656.875 202.238281 657.808594 C 202.738281 658.742188 203.28125 659.648438 203.867188 660.527344 C 204.457031 661.40625 205.085938 662.253906 205.757812 663.070312 C 206.425781 663.886719 207.136719 664.671875 207.882812 665.417969 C 208.632812 666.167969 209.414062 666.875 210.230469 667.546875 C 211.050781 668.21875 211.898438 668.847656 212.777344 669.433594 C 213.65625 670.023438 214.5625 670.566406 215.496094 671.0625 C 216.429688 671.5625 217.382812 672.011719 218.359375 672.417969 C 219.335938 672.824219 220.332031 673.179688 221.34375 673.484375 C 222.355469 673.792969 223.378906 674.050781 224.417969 674.253906 C 225.453125 674.460938 226.5 674.617188 227.550781 674.722656 C 228.605469 674.824219 229.660156 674.875 230.714844 674.875 C 231.773438 674.875 232.828125 674.824219 233.882812 674.722656 C 234.933594 674.617188 235.976562 674.460938 237.015625 674.253906 C 238.054688 674.050781 239.078125 673.792969 240.089844 673.484375 C 241.101562 673.179688 242.097656 672.824219 243.074219 672.417969 C 244.050781 672.011719 245.003906 671.5625 245.9375 671.0625 C 246.871094 670.566406 247.777344 670.023438 248.65625 669.433594 C 249.535156 668.847656 250.382812 668.21875 251.199219 667.546875 C 252.019531 666.875 252.800781 666.167969 253.546875 665.417969 C 254.296875 664.671875 255.003906 663.886719 255.675781 663.070312 C 256.347656 662.253906 256.976562 661.40625 257.5625 660.527344 C 258.152344 659.648438 258.695312 658.742188 259.191406 657.808594 C 259.691406 656.875 260.144531 655.921875 260.546875 654.945312 C 260.953125 653.964844 261.308594 652.972656 261.613281 651.960938 C 261.921875 650.949219 262.179688 649.921875 262.386719 648.886719 C 262.589844 647.847656 262.746094 646.804688 262.851562 645.75 C 262.953125 644.699219 263.003906 643.644531 263.003906 642.585938 C 263.003906 641.53125 262.953125 640.472656 262.851562 639.421875 C 262.746094 638.371094 262.589844 637.324219 262.386719 636.289062 C 262.179688 635.25 261.921875 634.226562 261.613281 633.214844 C 261.308594 632.203125 260.953125 631.207031 260.546875 630.230469 C 260.144531 629.253906 259.691406 628.296875 259.191406 627.367188 C 258.695312 626.433594 258.152344 625.527344 257.5625 624.648438 C 256.976562 623.769531 256.347656 622.921875 255.675781 622.101562 C 255.003906 621.285156 254.296875 620.503906 253.546875 619.753906 C 252.800781 619.007812 252.019531 618.296875 251.199219 617.625 C 250.382812 616.957031 249.535156 616.328125 248.65625 615.738281 C 247.777344 615.152344 246.871094 614.609375 245.9375 614.109375 C 245.003906 613.613281 244.050781 613.160156 243.074219 612.753906 C 242.097656 612.351562 241.101562 611.996094 240.089844 611.6875 C 239.078125 611.382812 238.054688 611.125 237.015625 610.917969 C 235.976562 610.710938 234.933594 610.558594 233.882812 610.453125 C 232.828125 610.347656 231.773438 610.296875 230.714844 610.296875 Z M 230.714844 610.296875 "/><path style=" stroke:none;fill-rule:nonzero;fill:#ffdb6e;fill-opacity:1;" d="M 190.355469 481.140625 L 271.078125 481.140625 L 271.078125 497.285156 L 190.355469 497.285156 Z M 190.355469 481.140625 "/><path style=" stroke:none;fill-rule:nonzero;fill:#ffdb6e;fill-opacity:1;" d="M 190.355469 561.863281 L 271.078125 561.863281 L 271.078125 578.007812 L 190.355469 578.007812 Z M 190.355469 561.863281 "/><path style=" stroke:none;fill-rule:nonzero;fill:#ffdb6e;fill-opacity:1;" d="M 190.355469 707.164062 L 271.078125 707.164062 L 271.078125 723.308594 L 190.355469 723.308594 Z M 190.355469 707.164062 "/><path style=" stroke:none;fill-rule:nonzero;fill:#ffdb6e;fill-opacity:1;" d="M 190.355469 787.890625 L 271.078125 787.890625 L 271.078125 804.035156 L 190.355469 804.035156 Z M 190.355469 787.890625 "/><path style=" stroke:none;fill-rule:nonzero;fill:#ffdb6e;fill-opacity:1;" d="M 190.355469 521.5 L 271.078125 521.5 L 271.078125 537.648438 L 190.355469 537.648438 Z M 190.355469 521.5 "/><path style=" stroke:none;fill-rule:nonzero;fill:#ffdb6e;fill-opacity:1;" d="M 190.355469 747.527344 L 271.078125 747.527344 L 271.078125 763.671875 L 190.355469 763.671875 Z M 190.355469 747.527344 "/><path style=" stroke:none;fill-rule:nonzero;fill:#ffdb6e;fill-opacity:1;" d="M 222.644531 489.210938 L 238.789062 489.210938 L 238.789062 569.9375 L 222.644531 569.9375 Z M 222.644531 489.210938 "/><path style=" stroke:none;fill-rule:nonzero;fill:#ffdb6e;fill-opacity:1;" d="M 222.644531 715.238281 L 238.789062 715.238281 L 238.789062 795.960938 L 222.644531 795.960938 Z M 222.644531 715.238281 "/><path style=" stroke:none;fill-rule:nonzero;fill:#ffdb6e;fill-opacity:1;" d="M 566.765625 578.976562 C 566.140625 578.976562 565.519531 578.902344 564.910156 578.757812 C 564.242188 578.601562 563.605469 578.363281 563 578.042969 C 562.390625 577.722656 561.835938 577.328125 561.328125 576.867188 C 560.820312 576.402344 560.378906 575.886719 560.003906 575.308594 C 559.628906 574.734375 559.332031 574.121094 559.113281 573.472656 L 553.988281 558.132812 L 545.207031 549.359375 L 529.867188 544.226562 C 529.542969 544.117188 529.226562 543.988281 528.921875 543.839844 C 528.613281 543.6875 528.316406 543.519531 528.027344 543.335938 C 527.742188 543.148438 527.46875 542.941406 527.207031 542.722656 C 526.945312 542.5 526.699219 542.261719 526.46875 542.007812 C 526.238281 541.757812 526.027344 541.488281 525.828125 541.210938 C 525.632812 540.929688 525.457031 540.636719 525.296875 540.335938 C 525.136719 540.03125 524.996094 539.722656 524.875 539.398438 C 524.757812 539.078125 524.65625 538.753906 524.578125 538.417969 C 524.5 538.085938 524.445312 537.75 524.410156 537.410156 C 524.375 537.070312 524.359375 536.726562 524.367188 536.386719 C 524.375 536.042969 524.40625 535.703125 524.457031 535.363281 C 524.507812 535.027344 524.578125 534.691406 524.671875 534.363281 C 524.765625 534.035156 524.882812 533.710938 525.015625 533.398438 C 525.148438 533.082031 525.304688 532.777344 525.476562 532.484375 C 525.652344 532.1875 525.84375 531.90625 526.050781 531.636719 C 526.261719 531.363281 526.488281 531.109375 526.730469 530.867188 L 800.703125 256.890625 C 801.078125 256.515625 801.484375 256.183594 801.925781 255.886719 C 802.367188 255.59375 802.832031 255.34375 803.320312 255.140625 C 803.8125 254.9375 804.316406 254.785156 804.835938 254.683594 C 805.355469 254.578125 805.878906 254.527344 806.410156 254.527344 C 806.941406 254.527344 807.464844 254.578125 807.984375 254.683594 C 808.503906 254.785156 809.007812 254.9375 809.5 255.140625 C 809.988281 255.34375 810.453125 255.59375 810.894531 255.886719 C 811.335938 256.183594 811.742188 256.515625 812.117188 256.890625 L 846.425781 291.199219 C 846.800781 291.574219 847.132812 291.980469 847.429688 292.421875 C 847.722656 292.863281 847.972656 293.328125 848.175781 293.816406 C 848.378906 294.304688 848.53125 294.8125 848.632812 295.332031 C 848.738281 295.851562 848.789062 296.375 848.789062 296.90625 C 848.789062 297.433594 848.738281 297.960938 848.632812 298.480469 C 848.53125 299 848.378906 299.503906 848.175781 299.992188 C 847.972656 300.484375 847.722656 300.949219 847.429688 301.390625 C 847.132812 301.832031 846.800781 302.238281 846.425781 302.613281 L 572.472656 576.621094 C 571.71875 577.375 570.84375 577.957031 569.855469 578.367188 C 568.867188 578.773438 567.835938 578.976562 566.765625 578.976562 Z M 547.394531 533.085938 L 552.132812 534.699219 C 553.335938 535.101562 554.382812 535.75 555.28125 536.644531 L 566.742188 548.109375 C 567.640625 549.003906 568.289062 550.054688 568.6875 551.257812 L 570.304688 556.003906 L 829.328125 296.929688 L 806.433594 274.035156 Z M 547.394531 533.085938 "/><path style=" stroke:none;fill-rule:nonzero;fill:#ffdb6e;fill-opacity:1;" d="M 509.613281 601.820312 C 509.285156 601.820312 508.960938 601.800781 508.632812 601.761719 C 508.308594 601.722656 507.984375 601.664062 507.664062 601.582031 C 507.347656 601.503906 507.035156 601.40625 506.726562 601.289062 C 506.421875 601.171875 506.121094 601.035156 505.832031 600.882812 C 505.542969 600.726562 505.261719 600.558594 504.992188 600.367188 C 504.722656 600.179688 504.464844 599.976562 504.222656 599.757812 C 503.976562 599.539062 503.746094 599.304688 503.53125 599.058594 C 503.3125 598.808594 503.113281 598.550781 502.929688 598.277344 C 502.746094 598.003906 502.578125 597.722656 502.429688 597.429688 C 502.277344 597.136719 502.148438 596.839844 502.035156 596.53125 C 501.921875 596.222656 501.828125 595.90625 501.753906 595.585938 C 501.675781 595.265625 501.621094 594.945312 501.585938 594.617188 C 501.550781 594.289062 501.535156 593.964844 501.539062 593.632812 C 501.546875 593.304688 501.570312 592.980469 501.613281 592.652344 C 501.660156 592.328125 501.722656 592.007812 501.808594 591.6875 C 501.890625 591.371094 501.996094 591.058594 502.117188 590.753906 L 524.960938 533.601562 L 539.960938 539.59375 L 524.097656 579.265625 L 563.773438 563.40625 L 569.753906 578.402344 L 512.601562 601.25 C 511.644531 601.628906 510.648438 601.820312 509.613281 601.820312 Z M 509.613281 601.820312 "/><path style=" stroke:none;fill-rule:nonzero;fill:#ffdb6e;fill-opacity:1;" d="M 766.503906 302.644531 L 777.917969 291.230469 L 812.144531 325.453125 L 800.730469 336.867188 Z M 766.503906 302.644531 "/><path style=" stroke:none;fill-rule:nonzero;fill:#ffdb6e;fill-opacity:1;" d="M 749.386719 319.75 L 760.804688 308.335938 L 795.035156 342.566406 L 783.617188 353.984375 Z M 749.386719 319.75 "/><path style=" stroke:none;fill-rule:nonzero;fill:#ffdb6e;fill-opacity:1;" d="M 408.308594 327.765625 L 263.003906 327.765625 C 262.476562 327.765625 261.949219 327.714844 261.429688 327.609375 C 260.910156 327.507812 260.40625 327.355469 259.917969 327.152344 C 259.425781 326.949219 258.960938 326.699219 258.519531 326.40625 C 258.082031 326.109375 257.671875 325.777344 257.296875 325.402344 C 256.921875 325.027344 256.589844 324.617188 256.292969 324.179688 C 256 323.738281 255.75 323.273438 255.546875 322.78125 C 255.34375 322.292969 255.191406 321.789062 255.089844 321.269531 C 254.984375 320.75 254.933594 320.222656 254.933594 319.695312 L 254.933594 174.390625 C 254.933594 173.863281 254.984375 173.335938 255.089844 172.816406 C 255.191406 172.296875 255.34375 171.792969 255.546875 171.300781 C 255.75 170.8125 256 170.347656 256.292969 169.90625 C 256.589844 169.464844 256.921875 169.058594 257.296875 168.683594 C 257.671875 168.308594 258.082031 167.972656 258.519531 167.679688 C 258.960938 167.386719 259.425781 167.136719 259.917969 166.933594 C 260.40625 166.730469 260.910156 166.578125 261.429688 166.472656 C 261.949219 166.371094 262.476562 166.320312 263.003906 166.320312 L 408.308594 166.320312 C 408.835938 166.320312 409.363281 166.371094 409.882812 166.472656 C 410.402344 166.578125 410.90625 166.730469 411.398438 166.933594 C 411.886719 167.136719 412.351562 167.386719 412.792969 167.679688 C 413.234375 167.972656 413.640625 168.308594 414.015625 168.683594 C 414.390625 169.058594 414.726562 169.464844 415.019531 169.90625 C 415.3125 170.347656 415.5625 170.8125 415.765625 171.300781 C 415.96875 171.792969 416.121094 172.296875 416.226562 172.816406 C 416.328125 173.335938 416.378906 173.863281 416.378906 174.390625 L 416.378906 319.695312 C 416.378906 320.222656 416.328125 320.75 416.226562 321.269531 C 416.121094 321.789062 415.96875 322.292969 415.765625 322.78125 C 415.5625 323.273438 415.3125 323.738281 415.019531 324.179688 C 414.726562 324.617188 414.390625 325.027344 414.015625 325.402344 C 413.640625 325.777344 413.234375 326.109375 412.792969 326.40625 C 412.351562 326.699219 411.886719 326.949219 411.398438 327.152344 C 410.90625 327.355469 410.402344 327.507812 409.882812 327.609375 C 409.363281 327.714844 408.835938 327.765625 408.308594 327.765625 Z M 271.078125 311.621094 L 400.234375 311.621094 L 400.234375 182.464844 L 271.078125 182.464844 Z M 271.078125 311.621094 "/><path style=" stroke:none;fill-rule:nonzero;fill:#ffdb6e;fill-opacity:1;" d="M 408.308594 400.417969 C 406.988281 400.414062 405.667969 400.382812 404.347656 400.316406 C 403.027344 400.25 401.710938 400.152344 400.398438 400.019531 C 399.082031 399.890625 397.773438 399.726562 396.46875 399.53125 C 395.160156 399.335938 393.859375 399.109375 392.566406 398.851562 C 391.269531 398.59375 389.980469 398.300781 388.703125 397.980469 C 387.421875 397.660156 386.148438 397.304688 384.882812 396.921875 C 383.621094 396.535156 382.367188 396.121094 381.125 395.675781 C 379.882812 395.230469 378.648438 394.753906 377.429688 394.25 C 376.210938 393.742188 375.003906 393.207031 373.808594 392.640625 C 372.617188 392.078125 371.4375 391.480469 370.273438 390.859375 C 369.109375 390.234375 367.960938 389.585938 366.828125 388.90625 C 365.695312 388.226562 364.578125 387.519531 363.480469 386.785156 C 362.382812 386.050781 361.304688 385.289062 360.242188 384.503906 C 359.183594 383.71875 358.140625 382.90625 357.121094 382.066406 C 356.101562 381.226562 355.101562 380.367188 354.121094 379.480469 C 353.144531 378.59375 352.1875 377.679688 351.253906 376.746094 C 350.320312 375.8125 349.410156 374.859375 348.523438 373.878906 C 347.636719 372.902344 346.773438 371.902344 345.933594 370.878906 C 345.097656 369.859375 344.285156 368.820312 343.496094 367.757812 C 342.710938 366.699219 341.949219 365.617188 341.214844 364.519531 C 340.480469 363.421875 339.773438 362.308594 339.09375 361.175781 C 338.417969 360.042969 337.765625 358.894531 337.140625 357.730469 C 336.519531 356.5625 335.925781 355.386719 335.359375 354.191406 C 334.792969 352.996094 334.257812 351.792969 333.753906 350.570312 C 333.246094 349.351562 332.769531 348.121094 332.324219 346.875 C 331.878906 345.632812 331.464844 344.378906 331.078125 343.117188 C 330.695312 341.851562 330.34375 340.582031 330.019531 339.300781 C 329.699219 338.019531 329.410156 336.730469 329.148438 335.4375 C 328.890625 334.140625 328.664062 332.839844 328.46875 331.535156 C 328.273438 330.226562 328.113281 328.917969 327.980469 327.601562 C 327.851562 326.289062 327.75 324.972656 327.6875 323.652344 C 327.621094 322.335938 327.585938 321.015625 327.585938 319.695312 L 343.730469 319.695312 C 343.730469 320.75 343.753906 321.808594 343.804688 322.863281 C 343.859375 323.917969 343.9375 324.972656 344.039062 326.023438 C 344.144531 327.074219 344.273438 328.125 344.429688 329.167969 C 344.582031 330.214844 344.761719 331.253906 344.96875 332.292969 C 345.175781 333.328125 345.40625 334.359375 345.664062 335.386719 C 345.921875 336.410156 346.203125 337.429688 346.507812 338.441406 C 346.816406 339.453125 347.148438 340.453125 347.503906 341.449219 C 347.859375 342.445312 348.238281 343.429688 348.644531 344.40625 C 349.050781 345.382812 349.476562 346.347656 349.929688 347.304688 C 350.382812 348.261719 350.855469 349.203125 351.355469 350.136719 C 351.851562 351.066406 352.375 351.988281 352.917969 352.894531 C 353.460938 353.800781 354.023438 354.691406 354.613281 355.570312 C 355.199219 356.449219 355.808594 357.3125 356.4375 358.164062 C 357.066406 359.011719 357.71875 359.84375 358.386719 360.660156 C 359.058594 361.480469 359.75 362.277344 360.457031 363.0625 C 361.167969 363.84375 361.894531 364.609375 362.644531 365.359375 C 363.390625 366.105469 364.15625 366.832031 364.9375 367.542969 C 365.722656 368.253906 366.523438 368.941406 367.339844 369.613281 C 368.15625 370.285156 368.988281 370.933594 369.839844 371.5625 C 370.6875 372.191406 371.550781 372.800781 372.429688 373.390625 C 373.308594 373.976562 374.199219 374.542969 375.105469 375.085938 C 376.015625 375.628906 376.933594 376.148438 377.867188 376.648438 C 378.796875 377.144531 379.742188 377.621094 380.695312 378.070312 C 381.652344 378.523438 382.617188 378.953125 383.59375 379.355469 C 384.570312 379.761719 385.554688 380.140625 386.550781 380.496094 C 387.546875 380.851562 388.550781 381.183594 389.5625 381.492188 C 390.574219 381.796875 391.589844 382.082031 392.617188 382.335938 C 393.640625 382.59375 394.671875 382.824219 395.707031 383.03125 C 396.746094 383.238281 397.785156 383.417969 398.832031 383.574219 C 399.878906 383.726562 400.925781 383.859375 401.976562 383.960938 C 403.03125 384.066406 404.082031 384.144531 405.140625 384.195312 C 406.195312 384.246094 407.25 384.273438 408.308594 384.273438 C 409.363281 384.273438 410.421875 384.246094 411.476562 384.195312 C 412.53125 384.144531 413.585938 384.066406 414.636719 383.960938 C 415.6875 383.859375 416.738281 383.726562 417.78125 383.574219 C 418.828125 383.417969 419.871094 383.238281 420.90625 383.03125 C 421.941406 382.824219 422.972656 382.59375 424 382.335938 C 425.023438 382.082031 426.042969 381.796875 427.054688 381.492188 C 428.066406 381.183594 429.066406 380.851562 430.0625 380.496094 C 431.058594 380.140625 432.042969 379.761719 433.019531 379.355469 C 433.996094 378.953125 434.964844 378.523438 435.917969 378.070312 C 436.875 377.621094 437.816406 377.144531 438.75 376.648438 C 439.683594 376.148438 440.601562 375.628906 441.507812 375.085938 C 442.414062 374.542969 443.308594 373.976562 444.183594 373.390625 C 445.0625 372.800781 445.929688 372.191406 446.777344 371.5625 C 447.625 370.933594 448.457031 370.285156 449.277344 369.613281 C 450.09375 368.941406 450.894531 368.253906 451.675781 367.542969 C 452.457031 366.832031 453.222656 366.105469 453.972656 365.359375 C 454.71875 364.609375 455.449219 363.84375 456.15625 363.0625 C 456.867188 362.277344 457.558594 361.480469 458.226562 360.660156 C 458.898438 359.84375 459.546875 359.011719 460.175781 358.164062 C 460.808594 357.3125 461.414062 356.449219 462.003906 355.570312 C 462.589844 354.691406 463.15625 353.800781 463.699219 352.894531 C 464.242188 351.988281 464.761719 351.066406 465.261719 350.136719 C 465.757812 349.203125 466.234375 348.261719 466.6875 347.304688 C 467.136719 346.347656 467.566406 345.382812 467.96875 344.40625 C 468.375 343.429688 468.753906 342.445312 469.109375 341.449219 C 469.46875 340.453125 469.796875 339.453125 470.105469 338.441406 C 470.414062 337.429688 470.695312 336.410156 470.949219 335.386719 C 471.207031 334.359375 471.4375 333.328125 471.644531 332.292969 C 471.851562 331.253906 472.03125 330.214844 472.1875 329.167969 C 472.34375 328.125 472.472656 327.074219 472.574219 326.023438 C 472.679688 324.972656 472.757812 323.917969 472.808594 322.863281 C 472.859375 321.808594 472.886719 320.75 472.886719 319.695312 C 472.886719 318.636719 472.859375 317.582031 472.808594 316.523438 C 472.757812 315.46875 472.679688 314.414062 472.574219 313.363281 C 472.472656 312.3125 472.34375 311.261719 472.1875 310.21875 C 472.03125 309.171875 471.851562 308.132812 471.644531 307.09375 C 471.4375 306.058594 471.207031 305.027344 470.949219 304.003906 C 470.695312 302.976562 470.414062 301.957031 470.105469 300.949219 C 469.796875 299.9375 469.46875 298.933594 469.109375 297.9375 C 468.753906 296.941406 468.375 295.957031 467.96875 294.980469 C 467.566406 294.003906 467.136719 293.039062 466.6875 292.082031 C 466.234375 291.128906 465.757812 290.183594 465.261719 289.25 C 464.761719 288.320312 464.242188 287.398438 463.699219 286.492188 C 463.15625 285.585938 462.589844 284.695312 462.003906 283.816406 C 461.414062 282.9375 460.808594 282.074219 460.175781 281.222656 C 459.546875 280.375 458.898438 279.542969 458.226562 278.726562 C 457.558594 277.910156 456.867188 277.109375 456.15625 276.324219 C 455.449219 275.542969 454.71875 274.777344 453.972656 274.03125 C 453.222656 273.28125 452.457031 272.554688 451.675781 271.84375 C 450.894531 271.132812 450.09375 270.445312 449.277344 269.773438 C 448.457031 269.101562 447.625 268.453125 446.777344 267.824219 C 445.929688 267.195312 445.0625 266.585938 444.183594 266 C 443.308594 265.410156 442.414062 264.847656 441.507812 264.304688 C 440.601562 263.757812 439.683594 263.238281 438.75 262.742188 C 437.816406 262.242188 436.875 261.765625 435.917969 261.316406 C 434.964844 260.863281 433.996094 260.433594 433.019531 260.03125 C 432.042969 259.625 431.058594 259.246094 430.0625 258.890625 C 429.066406 258.535156 428.066406 258.203125 427.054688 257.894531 C 426.042969 257.589844 425.023438 257.308594 424 257.050781 C 422.972656 256.792969 421.941406 256.5625 420.90625 256.355469 C 419.871094 256.148438 418.828125 255.96875 417.78125 255.8125 C 416.738281 255.660156 415.6875 255.53125 414.636719 255.425781 C 413.585938 255.324219 412.53125 255.246094 411.476562 255.191406 C 410.421875 255.140625 409.363281 255.113281 408.308594 255.113281 L 408.308594 238.96875 C 409.628906 238.972656 410.949219 239.003906 412.265625 239.070312 C 413.585938 239.132812 414.902344 239.230469 416.21875 239.363281 C 417.53125 239.492188 418.84375 239.652344 420.148438 239.847656 C 421.457031 240.042969 422.757812 240.269531 424.050781 240.527344 C 425.347656 240.785156 426.636719 241.074219 427.917969 241.394531 C 429.199219 241.714844 430.46875 242.070312 431.734375 242.453125 C 432.996094 242.835938 434.25 243.25 435.496094 243.695312 C 436.738281 244.140625 437.96875 244.617188 439.191406 245.125 C 440.410156 245.628906 441.617188 246.164062 442.8125 246.730469 C 444.003906 247.292969 445.183594 247.886719 446.347656 248.511719 C 447.515625 249.132812 448.664062 249.785156 449.796875 250.464844 C 450.929688 251.144531 452.042969 251.851562 453.140625 252.585938 C 454.238281 253.320312 455.320312 254.078125 456.378906 254.867188 C 457.441406 255.652344 458.480469 256.464844 459.503906 257.304688 C 460.523438 258.140625 461.523438 259.003906 462.5 259.890625 C 463.480469 260.777344 464.4375 261.6875 465.371094 262.625 C 466.304688 263.558594 467.214844 264.515625 468.101562 265.492188 C 468.988281 266.472656 469.847656 267.472656 470.6875 268.492188 C 471.523438 269.515625 472.335938 270.554688 473.125 271.617188 C 473.910156 272.675781 474.671875 273.757812 475.40625 274.855469 C 476.136719 275.953125 476.84375 277.070312 477.523438 278.203125 C 478.203125 279.335938 478.851562 280.484375 479.476562 281.648438 C 480.097656 282.8125 480.691406 283.992188 481.257812 285.1875 C 481.820312 286.382812 482.355469 287.589844 482.859375 288.808594 C 483.367188 290.027344 483.839844 291.261719 484.285156 292.503906 C 484.730469 293.75 485.144531 295.003906 485.527344 296.265625 C 485.910156 297.53125 486.265625 298.800781 486.585938 300.082031 C 486.90625 301.363281 487.195312 302.652344 487.453125 303.949219 C 487.710938 305.246094 487.9375 306.546875 488.128906 307.851562 C 488.324219 309.160156 488.484375 310.46875 488.613281 311.78125 C 488.742188 313.097656 488.839844 314.414062 488.90625 315.734375 C 488.96875 317.054688 489.003906 318.371094 489.003906 319.695312 C 489.003906 321.015625 488.96875 322.335938 488.90625 323.652344 C 488.839844 324.972656 488.742188 326.289062 488.613281 327.605469 C 488.484375 328.917969 488.324219 330.230469 488.128906 331.535156 C 487.9375 332.84375 487.710938 334.144531 487.453125 335.4375 C 487.195312 336.734375 486.90625 338.023438 486.585938 339.304688 C 486.265625 340.585938 485.910156 341.859375 485.527344 343.121094 C 485.144531 344.386719 484.730469 345.640625 484.285156 346.882812 C 483.839844 348.125 483.367188 349.359375 482.859375 350.578125 C 482.355469 351.800781 481.820312 353.007812 481.257812 354.199219 C 480.691406 355.394531 480.097656 356.574219 479.476562 357.738281 C 478.851562 358.902344 478.203125 360.050781 477.523438 361.1875 C 476.84375 362.320312 476.136719 363.433594 475.40625 364.53125 C 474.671875 365.628906 473.910156 366.710938 473.125 367.769531 C 472.335938 368.832031 471.523438 369.875 470.6875 370.894531 C 469.847656 371.914062 468.988281 372.914062 468.101562 373.894531 C 467.214844 374.875 466.304688 375.828125 465.371094 376.765625 C 464.4375 377.699219 463.480469 378.609375 462.5 379.496094 C 461.523438 380.382812 460.523438 381.246094 459.503906 382.082031 C 458.480469 382.921875 457.441406 383.734375 456.378906 384.519531 C 455.320312 385.308594 454.238281 386.070312 453.140625 386.804688 C 452.042969 387.535156 450.929688 388.242188 449.796875 388.921875 C 448.664062 389.601562 447.515625 390.253906 446.347656 390.875 C 445.183594 391.5 444.003906 392.09375 442.8125 392.65625 C 441.617188 393.222656 440.410156 393.757812 439.191406 394.265625 C 437.96875 394.769531 436.738281 395.246094 435.496094 395.691406 C 434.25 396.136719 432.996094 396.550781 431.734375 396.933594 C 430.46875 397.316406 429.199219 397.671875 427.917969 397.992188 C 426.636719 398.3125 425.347656 398.601562 424.050781 398.859375 C 422.757812 399.121094 421.457031 399.34375 420.148438 399.539062 C 418.84375 399.734375 417.53125 399.894531 416.21875 400.027344 C 414.902344 400.15625 413.585938 400.253906 412.265625 400.320312 C 410.949219 400.382812 409.628906 400.417969 408.308594 400.417969 Z M 408.308594 400.417969 "/><path style=" stroke:none;fill-rule:nonzero;fill:#ffdb6e;fill-opacity:1;" d="M 257.296875 180.097656 L 268.714844 168.683594 L 414.015625 313.984375 L 402.601562 325.402344 Z M 257.296875 180.097656 "/><path style=" stroke:none;fill-rule:nonzero;fill:#ffdb6e;fill-opacity:1;" d="M 305.734375 180.101562 L 317.148438 168.683594 L 414.019531 265.554688 L 402.605469 276.972656 Z M 305.734375 180.101562 "/><path style=" stroke:none;fill-rule:nonzero;fill:#ffdb6e;fill-opacity:1;" d="M 257.300781 228.535156 L 268.714844 217.121094 L 365.585938 313.988281 L 354.167969 325.40625 Z M 257.300781 228.535156 "/><path style=" stroke:none;fill-rule:nonzero;fill:#ffdb6e;fill-opacity:1;" d="M 354.164062 180.097656 L 365.578125 168.683594 L 414.011719 217.113281 L 402.597656 228.53125 Z M 354.164062 180.097656 "/><path style=" stroke:none;fill-rule:nonzero;fill:#ffdb6e;fill-opacity:1;" d="M 257.296875 276.964844 L 268.710938 265.550781 L 317.144531 313.980469 L 305.726562 325.398438 Z M 257.296875 276.964844 "/><path style=" stroke:none;fill-rule:nonzero;fill:#ffdb6e;fill-opacity:1;" d="M 585.898438 400.417969 L 537.464844 400.417969 C 536.933594 400.417969 536.410156 400.367188 535.890625 400.261719 C 535.371094 400.160156 534.867188 400.003906 534.375 399.800781 C 533.886719 399.601562 533.421875 399.351562 532.980469 399.054688 C 532.539062 398.761719 532.132812 398.425781 531.757812 398.050781 C 531.382812 397.679688 531.046875 397.269531 530.753906 396.828125 C 530.457031 396.390625 530.210938 395.921875 530.007812 395.433594 C 529.804688 394.945312 529.652344 394.4375 529.546875 393.917969 C 529.445312 393.398438 529.390625 392.875 529.390625 392.34375 L 529.390625 343.910156 C 529.390625 343.378906 529.445312 342.855469 529.546875 342.335938 C 529.652344 341.816406 529.804688 341.3125 530.007812 340.820312 C 530.210938 340.332031 530.457031 339.867188 530.753906 339.425781 C 531.046875 338.984375 531.382812 338.578125 531.757812 338.203125 C 532.132812 337.828125 532.539062 337.492188 532.980469 337.199219 C 533.421875 336.90625 533.886719 336.65625 534.375 336.453125 C 534.867188 336.25 535.371094 336.097656 535.890625 335.992188 C 536.410156 335.890625 536.933594 335.839844 537.464844 335.839844 L 585.898438 335.839844 C 586.429688 335.839844 586.953125 335.890625 587.472656 335.992188 C 587.992188 336.097656 588.5 336.25 588.988281 336.453125 C 589.476562 336.65625 589.941406 336.90625 590.382812 337.199219 C 590.824219 337.492188 591.230469 337.828125 591.605469 338.203125 C 591.980469 338.578125 592.316406 338.984375 592.609375 339.425781 C 592.90625 339.867188 593.152344 340.332031 593.355469 340.820312 C 593.558594 341.3125 593.710938 341.816406 593.816406 342.335938 C 593.917969 342.855469 593.972656 343.378906 593.972656 343.910156 L 593.972656 392.34375 C 593.972656 392.875 593.917969 393.398438 593.816406 393.917969 C 593.710938 394.4375 593.558594 394.945312 593.355469 395.433594 C 593.152344 395.921875 592.90625 396.390625 592.609375 396.828125 C 592.316406 397.269531 591.980469 397.679688 591.605469 398.050781 C 591.230469 398.425781 590.824219 398.761719 590.382812 399.054688 C 589.941406 399.351562 589.476562 399.601562 588.988281 399.800781 C 588.5 400.003906 587.992188 400.160156 587.472656 400.261719 C 586.953125 400.367188 586.429688 400.417969 585.898438 400.417969 Z M 545.535156 384.273438 L 577.828125 384.273438 L 577.828125 351.984375 L 545.535156 351.984375 Z M 545.535156 384.273438 "/><path style=" stroke:none;fill-rule:nonzero;fill:#ffdb6e;fill-opacity:1;" d="M 638.367188 343.910156 C 637.179688 343.910156 635.992188 343.851562 634.808594 343.734375 C 633.625 343.617188 632.449219 343.445312 631.28125 343.210938 C 630.113281 342.980469 628.960938 342.691406 627.824219 342.347656 C 626.6875 342 625.566406 341.601562 624.46875 341.144531 C 623.367188 340.691406 622.292969 340.183594 621.246094 339.621094 C 620.195312 339.0625 619.175781 338.449219 618.1875 337.789062 C 617.199219 337.128906 616.242188 336.417969 615.324219 335.664062 C 614.40625 334.910156 613.523438 334.113281 612.683594 333.269531 C 611.839844 332.429688 611.042969 331.550781 610.289062 330.628906 C 609.535156 329.710938 608.828125 328.753906 608.164062 327.765625 C 607.503906 326.777344 606.894531 325.757812 606.332031 324.707031 C 605.773438 323.660156 605.265625 322.585938 604.808594 321.484375 C 604.351562 320.386719 603.953125 319.269531 603.609375 318.128906 C 603.261719 316.992188 602.972656 315.839844 602.742188 314.671875 C 602.507812 313.503906 602.335938 312.328125 602.21875 311.144531 C 602.101562 309.960938 602.042969 308.773438 602.042969 307.585938 C 602.042969 306.394531 602.101562 305.207031 602.21875 304.023438 C 602.335938 302.839844 602.507812 301.664062 602.742188 300.5 C 602.972656 299.332031 603.261719 298.179688 603.609375 297.039062 C 603.953125 295.902344 604.351562 294.78125 604.808594 293.683594 C 605.265625 292.585938 605.773438 291.511719 606.332031 290.460938 C 606.894531 289.414062 607.503906 288.394531 608.164062 287.402344 C 608.828125 286.414062 609.535156 285.460938 610.289062 284.539062 C 611.042969 283.621094 611.839844 282.742188 612.683594 281.898438 C 613.523438 281.058594 614.40625 280.261719 615.324219 279.503906 C 616.242188 278.75 617.199219 278.042969 618.1875 277.382812 C 619.175781 276.71875 620.195312 276.109375 621.246094 275.550781 C 622.292969 274.988281 623.367188 274.480469 624.46875 274.023438 C 625.566406 273.570312 626.6875 273.167969 627.824219 272.824219 C 628.960938 272.480469 630.113281 272.191406 631.28125 271.957031 C 632.449219 271.726562 633.625 271.550781 634.808594 271.433594 C 635.992188 271.316406 637.179688 271.257812 638.367188 271.257812 C 639.558594 271.257812 640.746094 271.316406 641.929688 271.433594 C 643.113281 271.550781 644.289062 271.726562 645.457031 271.957031 C 646.621094 272.191406 647.773438 272.480469 648.914062 272.824219 C 650.050781 273.167969 651.171875 273.570312 652.269531 274.023438 C 653.371094 274.480469 654.441406 274.988281 655.492188 275.550781 C 656.542969 276.109375 657.5625 276.71875 658.550781 277.382812 C 659.539062 278.042969 660.492188 278.75 661.414062 279.503906 C 662.332031 280.261719 663.214844 281.058594 664.054688 281.898438 C 664.894531 282.742188 665.695312 283.621094 666.449219 284.539062 C 667.203125 285.460938 667.910156 286.414062 668.574219 287.402344 C 669.234375 288.394531 669.84375 289.414062 670.40625 290.460938 C 670.964844 291.511719 671.472656 292.585938 671.929688 293.683594 C 672.382812 294.78125 672.785156 295.902344 673.128906 297.039062 C 673.476562 298.179688 673.765625 299.332031 673.996094 300.5 C 674.226562 301.664062 674.402344 302.839844 674.519531 304.023438 C 674.636719 305.207031 674.695312 306.394531 674.695312 307.585938 C 674.691406 308.773438 674.632812 309.960938 674.515625 311.144531 C 674.398438 312.328125 674.222656 313.503906 673.988281 314.667969 C 673.757812 315.835938 673.46875 316.988281 673.121094 318.125 C 672.773438 319.261719 672.375 320.382812 671.917969 321.480469 C 671.460938 322.578125 670.953125 323.652344 670.394531 324.699219 C 669.832031 325.75 669.222656 326.769531 668.558594 327.757812 C 667.898438 328.746094 667.191406 329.699219 666.4375 330.617188 C 665.683594 331.539062 664.882812 332.417969 664.042969 333.257812 C 663.203125 334.101562 662.320312 334.898438 661.402344 335.652344 C 660.484375 336.40625 659.53125 337.117188 658.539062 337.777344 C 657.550781 338.4375 656.535156 339.046875 655.484375 339.609375 C 654.4375 340.171875 653.363281 340.679688 652.265625 341.136719 C 651.164062 341.589844 650.046875 341.992188 648.910156 342.335938 C 647.769531 342.683594 646.617188 342.972656 645.453125 343.207031 C 644.285156 343.4375 643.113281 343.613281 641.929688 343.730469 C 640.746094 343.851562 639.558594 343.910156 638.367188 343.910156 Z M 638.367188 287.40625 C 637.707031 287.40625 637.046875 287.4375 636.390625 287.5 C 635.734375 287.566406 635.078125 287.664062 634.433594 287.792969 C 633.785156 287.921875 633.144531 288.082031 632.511719 288.273438 C 631.878906 288.464844 631.257812 288.6875 630.644531 288.941406 C 630.035156 289.195312 629.4375 289.476562 628.855469 289.789062 C 628.273438 290.097656 627.707031 290.4375 627.15625 290.804688 C 626.605469 291.171875 626.078125 291.566406 625.566406 291.984375 C 625.054688 292.40625 624.566406 292.847656 624.097656 293.316406 C 623.632812 293.78125 623.1875 294.273438 622.769531 294.78125 C 622.347656 295.292969 621.957031 295.824219 621.589844 296.375 C 621.222656 296.921875 620.882812 297.488281 620.570312 298.070312 C 620.257812 298.65625 619.976562 299.25 619.722656 299.863281 C 619.472656 300.472656 619.25 301.09375 619.058594 301.726562 C 618.863281 302.359375 618.703125 303 618.574219 303.648438 C 618.445312 304.296875 618.351562 304.949219 618.285156 305.605469 C 618.21875 306.265625 618.1875 306.925781 618.1875 307.585938 C 618.1875 308.246094 618.21875 308.90625 618.285156 309.5625 C 618.351562 310.222656 618.445312 310.875 618.574219 311.523438 C 618.703125 312.171875 618.863281 312.8125 619.058594 313.445312 C 619.25 314.074219 619.472656 314.699219 619.722656 315.308594 C 619.976562 315.917969 620.257812 316.515625 620.570312 317.097656 C 620.882812 317.679688 621.222656 318.246094 621.589844 318.796875 C 621.957031 319.347656 622.347656 319.875 622.769531 320.386719 C 623.1875 320.898438 623.632812 321.386719 624.097656 321.855469 C 624.566406 322.324219 625.054688 322.765625 625.566406 323.183594 C 626.078125 323.605469 626.605469 323.996094 627.15625 324.363281 C 627.707031 324.730469 628.273438 325.070312 628.855469 325.382812 C 629.4375 325.695312 630.035156 325.976562 630.644531 326.230469 C 631.257812 326.484375 631.878906 326.707031 632.511719 326.898438 C 633.144531 327.089844 633.785156 327.25 634.433594 327.378906 C 635.078125 327.507812 635.734375 327.605469 636.390625 327.667969 C 637.046875 327.734375 637.707031 327.765625 638.367188 327.765625 C 639.03125 327.765625 639.6875 327.734375 640.347656 327.667969 C 641.003906 327.605469 641.65625 327.507812 642.304688 327.378906 C 642.953125 327.25 643.59375 327.089844 644.226562 326.898438 C 644.859375 326.707031 645.480469 326.484375 646.089844 326.230469 C 646.703125 325.976562 647.300781 325.695312 647.882812 325.382812 C 648.464844 325.070312 649.03125 324.730469 649.582031 324.363281 C 650.128906 323.996094 650.660156 323.605469 651.171875 323.183594 C 651.683594 322.765625 652.171875 322.324219 652.640625 321.855469 C 653.105469 321.386719 653.550781 320.898438 653.96875 320.386719 C 654.386719 319.875 654.78125 319.347656 655.148438 318.796875 C 655.515625 318.246094 655.855469 317.679688 656.167969 317.097656 C 656.476562 316.515625 656.761719 315.917969 657.011719 315.308594 C 657.265625 314.699219 657.488281 314.074219 657.679688 313.445312 C 657.871094 312.8125 658.03125 312.171875 658.160156 311.523438 C 658.289062 310.875 658.386719 310.222656 658.453125 309.5625 C 658.515625 308.90625 658.550781 308.246094 658.550781 307.585938 C 658.550781 306.925781 658.515625 306.265625 658.453125 305.605469 C 658.386719 304.949219 658.289062 304.296875 658.160156 303.648438 C 658.03125 303 657.871094 302.359375 657.679688 301.726562 C 657.488281 301.09375 657.265625 300.472656 657.011719 299.863281 C 656.761719 299.25 656.476562 298.65625 656.167969 298.070312 C 655.855469 297.488281 655.515625 296.921875 655.148438 296.375 C 654.78125 295.824219 654.386719 295.292969 653.96875 294.78125 C 653.550781 294.273438 653.105469 293.78125 652.640625 293.316406 C 652.171875 292.847656 651.683594 292.40625 651.171875 291.984375 C 650.660156 291.566406 650.128906 291.171875 649.582031 290.804688 C 649.03125 290.4375 648.464844 290.097656 647.882812 289.789062 C 647.300781 289.476562 646.703125 289.195312 646.089844 288.941406 C 645.480469 288.6875 644.859375 288.464844 644.226562 288.273438 C 643.59375 288.082031 642.953125 287.921875 642.304688 287.792969 C 641.65625 287.664062 641.003906 287.566406 640.347656 287.5 C 639.6875 287.4375 639.03125 287.40625 638.367188 287.40625 Z M 638.367188 287.40625 "/><path style=" stroke:none;fill-rule:nonzero;fill:#ffdb6e;fill-opacity:1;" d="M 593.972656 263.1875 L 529.390625 263.1875 C 528.660156 263.1875 527.945312 263.089844 527.238281 262.894531 C 526.535156 262.699219 525.871094 262.414062 525.242188 262.039062 C 524.617188 261.664062 524.050781 261.210938 523.546875 260.683594 C 523.042969 260.152344 522.617188 259.566406 522.273438 258.921875 C 521.929688 258.277344 521.675781 257.601562 521.515625 256.886719 C 521.355469 256.175781 521.292969 255.453125 521.328125 254.722656 C 521.363281 253.992188 521.496094 253.28125 521.726562 252.585938 C 521.953125 251.894531 522.269531 251.242188 522.675781 250.636719 L 554.964844 202.199219 C 555.160156 201.941406 555.371094 201.691406 555.59375 201.457031 C 555.816406 201.222656 556.050781 201 556.300781 200.789062 C 556.550781 200.582031 556.8125 200.390625 557.082031 200.210938 C 557.355469 200.03125 557.636719 199.871094 557.925781 199.726562 C 558.214844 199.578125 558.515625 199.453125 558.820312 199.339844 C 559.125 199.230469 559.4375 199.136719 559.753906 199.0625 C 560.066406 198.988281 560.386719 198.929688 560.710938 198.894531 C 561.03125 198.855469 561.355469 198.835938 561.683594 198.835938 C 562.007812 198.835938 562.332031 198.855469 562.652344 198.894531 C 562.976562 198.929688 563.296875 198.988281 563.613281 199.0625 C 563.925781 199.136719 564.238281 199.230469 564.542969 199.339844 C 564.847656 199.453125 565.148438 199.578125 565.4375 199.726562 C 565.726562 199.871094 566.007812 200.03125 566.28125 200.210938 C 566.550781 200.390625 566.8125 200.582031 567.0625 200.789062 C 567.3125 201 567.546875 201.222656 567.769531 201.457031 C 567.996094 201.691406 568.203125 201.941406 568.398438 202.199219 L 600.6875 250.636719 C 601.09375 251.242188 601.410156 251.894531 601.640625 252.585938 C 601.867188 253.28125 602 253.992188 602.035156 254.722656 C 602.070312 255.453125 602.007812 256.175781 601.847656 256.886719 C 601.6875 257.601562 601.433594 258.277344 601.089844 258.921875 C 600.746094 259.566406 600.320312 260.152344 599.816406 260.683594 C 599.3125 261.210938 598.746094 261.664062 598.121094 262.039062 C 597.492188 262.414062 596.828125 262.699219 596.125 262.894531 C 595.417969 263.089844 594.703125 263.1875 593.972656 263.1875 Z M 544.472656 247.042969 L 578.890625 247.042969 L 561.683594 221.210938 Z M 544.472656 247.042969 "/><path style=" stroke:none;fill-rule:nonzero;fill:#ffdb6e;fill-opacity:1;" d="M 434.886719 527.207031 L 446.304688 515.792969 L 494.734375 564.222656 L 483.320312 575.640625 Z M 434.886719 527.207031 "/><path style=" stroke:none;fill-rule:nonzero;fill:#ffdb6e;fill-opacity:1;" d="M 531.757812 624.078125 L 543.171875 612.660156 L 607.753906 677.242188 L 596.335938 688.65625 Z M 531.757812 624.078125 "/><path style=" stroke:none;fill-rule:nonzero;fill:#ffdb6e;fill-opacity:1;" d="M 386.457031 527.210938 L 397.871094 515.792969 L 559.316406 677.238281 L 547.902344 688.65625 Z M 386.457031 527.210938 "/><path style=" stroke:none;fill-rule:nonzero;fill:#ffdb6e;fill-opacity:1;" d="M 394.527344 583.71875 L 405.945312 572.300781 L 567.390625 733.746094 L 555.972656 745.160156 Z M 394.527344 583.71875 "/><path style=" stroke:none;fill-rule:nonzero;fill:#ffdb6e;fill-opacity:1;" d="M 394.527344 632.148438 L 405.941406 620.734375 L 478.59375 693.386719 L 467.179688 704.800781 Z M 394.527344 632.148438 "/></g></svg>